<?xml version="1.0" encoding="UTF-8"?>
<svg id="Layer_4" data-name="Layer 4" xmlns="http://www.w3.org/2000/svg" viewBox="0 0 957.84 836.19">
  <defs>
    <style>
      .cls-1 {
        fill: #c0c7c8;
      }

      .cls-2 {
        fill: #fff;
      }

      .cls-3 {
        fill: #87888f;
      }
    </style>
  </defs>
  <polyline points="600.64 239.17 600.64 179.44 719.46 179.44 719.46 239.85 660.05 239.85 660.05 298.92 600.64 298.92 600.64 358.8 539.79 358.8 539.79 419.07 599.04 419.07 599.04 478.96 659.28 478.96 659.28 539.21 719.46 539.21 719.46 598.79 599.37 598.79 599.37 538.87 539.79 538.87 539.79 478.96 419.3 478.96 419.3 538.21 359.05 538.21 359.05 598.79 239.23 598.79 239.23 538.87 299.81 538.87 299.81 478.96 359.72 478.96 359.72 419.07 419.63 419.07 419.63 358.47 359.39 358.47 359.39 298.56 298.81 298.56 298.81 239.31 239.23 239.31 239.23 179.44 359.05 179.44 359.05 239.31 419.63 239.31 419.63 299.22 539.79 299.22 539.79 239.2 601.63 239.2"/>
</svg>